<?xml version="1.0" encoding="UTF-8" standalone="no"?>
<!DOCTYPE svg PUBLIC "-//W3C//DTD SVG 1.1//EN"
 "http://www.w3.org/Graphics/SVG/1.1/DTD/svg11.dtd">
<!-- Generated by graphviz version 2.44.1 (20200629.0846)
 -->
<!-- Title: g Pages: 1 -->
<svg width="470pt" height="794pt"
 viewBox="0.00 0.00 470.00 793.80" xmlns="http://www.w3.org/2000/svg" xmlns:xlink="http://www.w3.org/1999/xlink">
<g id="graph0" class="graph" transform="scale(1 1) rotate(0) translate(4 789.8)">
<title>g</title>
<polygon fill="white" stroke="transparent" points="-4,4 -4,-789.8 466,-789.8 466,4 -4,4"/>
<g id="clust1" class="cluster">
<title>cluster_867524938</title>
<polygon fill="#ececec" stroke="black" points="8,-8 8,-777.8 454,-777.8 454,-8 8,-8"/>
<text text-anchor="middle" x="41.27" y="-761.2" font-family="Times New Roman,serif" font-size="14.00">codecool</text>
</g>
<g id="clust2" class="cluster">
<title>cluster_1407640290</title>
<polygon fill="#d8d8d8" stroke="black" points="16,-16 16,-745 446,-745 446,-16 16,-16"/>
<text text-anchor="middle" x="34.89" y="-728.4" font-family="Times New Roman,serif" font-size="14.00">mi6</text>
</g>
<!-- CredentialStore1767014481 -->
<g id="node1" class="node">
<title>CredentialStore1767014481</title>
<polygon fill="#f1e5fd" stroke="transparent" points="376.5,-472.6 85.5,-472.6 85.5,-422.6 376.5,-422.6 376.5,-472.6"/>
<text text-anchor="start" x="91" y="-455" font-family="Times New Roman,serif" font-size="14.00">(I)CredentialStore</text>
<text text-anchor="start" x="90.7" y="-431" font-family="Times New Roman,serif" font-size="14.00">+ find(userName: String, hash: String): Credential</text>
<polygon fill="black" stroke="black" points="86,-447.6 86,-447.6 377,-447.6 377,-447.6 86,-447.6"/>
<polygon fill="none" stroke="black" points="85.5,-422.6 85.5,-472.6 376.5,-472.6 376.5,-422.6 85.5,-422.6"/>
</g>
<!-- InMemoryCredentialStore1767014481 -->
<g id="node2" class="node">
<title>InMemoryCredentialStore1767014481</title>
<polygon fill="#ffffff" stroke="transparent" points="376.5,-385.6 85.5,-385.6 85.5,-263.6 376.5,-263.6 376.5,-385.6"/>
<text text-anchor="start" x="91" y="-368" font-family="Times New Roman,serif" font-size="14.00">(C)InMemoryCredentialStore</text>
<text text-anchor="start" x="91" y="-344" font-family="Times New Roman,serif" font-size="14.00"># &#160;&#160;data: Map&lt;String, String&gt; [0..*]</text>
<text text-anchor="start" x="91" y="-320" font-family="Times New Roman,serif" font-size="14.00"># &#160;&#160;levels: Map&lt;String, SecurityLevel&gt; [0..*]</text>
<text text-anchor="start" x="91" y="-296" font-family="Times New Roman,serif" font-size="14.00">+ InMemoryCredentialStore()</text>
<text text-anchor="start" x="90.7" y="-272" font-family="Times New Roman,serif" font-size="14.00">+ find(userName: String, hash: String): Credential</text>
<polygon fill="black" stroke="black" points="86,-360.6 86,-360.6 377,-360.6 377,-360.6 86,-360.6"/>
<polygon fill="black" stroke="black" points="86,-312.6 86,-312.6 377,-312.6 377,-312.6 86,-312.6"/>
<polygon fill="none" stroke="black" points="85.5,-263.6 85.5,-385.6 376.5,-385.6 376.5,-263.6 85.5,-263.6"/>
</g>
<!-- CredentialStore1767014481&#45;&gt;InMemoryCredentialStore1767014481 -->
<g id="edge1" class="edge">
<title>CredentialStore1767014481&#45;&gt;InMemoryCredentialStore1767014481</title>
<path fill="none" stroke="black" d="M231,-412.38C231,-404.07 231,-394.94 231,-385.82"/>
<polygon fill="none" stroke="black" points="227.5,-412.4 231,-422.4 234.5,-412.4 227.5,-412.4"/>
</g>
<!-- SecurityLevel1590281993 -->
<g id="node4" class="node">
<title>SecurityLevel1590281993</title>
<polygon fill="#dcfbd5" stroke="transparent" points="347.5,-194 114.5,-194 114.5,-24 347.5,-24 347.5,-194"/>
<text text-anchor="start" x="120" y="-176.4" font-family="Times New Roman,serif" font-size="14.00">(E)SecurityLevel</text>
<text text-anchor="start" x="120" y="-152.4" font-family="Times New Roman,serif" font-size="14.00">+ &#160;&#160;INVALID: SecurityLevel [1]</text>
<text text-anchor="start" x="120" y="-128.4" font-family="Times New Roman,serif" font-size="14.00">+ &#160;&#160;ONE: SecurityLevel [1]</text>
<text text-anchor="start" x="120" y="-104.4" font-family="Times New Roman,serif" font-size="14.00">+ &#160;&#160;THREE: SecurityLevel [1]</text>
<text text-anchor="start" x="120" y="-80.4" font-family="Times New Roman,serif" font-size="14.00">+ &#160;&#160;TWO: SecurityLevel [1]</text>
<text text-anchor="start" x="119.67" y="-56.4" font-family="Times New Roman,serif" font-size="14.00">+ valueOf(name: String): SecurityLevel</text>
<text text-anchor="start" x="120" y="-32.4" font-family="Times New Roman,serif" font-size="14.00">+ values(): SecurityLevel[]</text>
<polygon fill="black" stroke="black" points="115,-169 115,-169 348,-169 348,-169 115,-169"/>
<polygon fill="black" stroke="black" points="115,-73 115,-73 348,-73 348,-73 115,-73"/>
<polygon fill="none" stroke="black" points="114.5,-24 114.5,-194 347.5,-194 347.5,-24 114.5,-24"/>
</g>
<!-- InMemoryCredentialStore1767014481&#45;&gt;SecurityLevel1590281993 -->
<g id="edge2" class="edge">
<title>InMemoryCredentialStore1767014481&#45;&gt;SecurityLevel1590281993</title>
<path fill="none" stroke="black" d="M231,-263.53C231,-245.16 231,-224.5 231,-204.43"/>
<polygon fill="black" stroke="black" points="234.5,-204.32 231,-194.32 227.5,-204.32 234.5,-204.32"/>
<text text-anchor="middle" x="247.33" y="-233" font-family="Times New Roman,serif" font-size="14.00">levels</text>
<text text-anchor="middle" x="247.33" y="-216.2" font-family="Times New Roman,serif" font-size="14.00">[0..*]</text>
</g>
<!-- LoginService1250869565 -->
<g id="node3" class="node">
<title>LoginService1250869565</title>
<polygon fill="#ffffff" stroke="transparent" points="438,-712.2 24,-712.2 24,-542.2 438,-542.2 438,-712.2"/>
<text text-anchor="start" x="29" y="-694.6" font-family="Times New Roman,serif" font-size="14.00">(C)LoginService</text>
<text text-anchor="start" x="29" y="-670.6" font-family="Times New Roman,serif" font-size="14.00">&#45; &#160;&#160;alertService: AlertService [0..1]</text>
<text text-anchor="start" x="29" y="-646.6" font-family="Times New Roman,serif" font-size="14.00">&#45; &#160;&#160;credentials: CredentialStore [0..1]</text>
<text text-anchor="start" x="29" y="-622.6" font-family="Times New Roman,serif" font-size="14.00"># &#160;&#160;md5: DigestUtils [0..1]</text>
<text text-anchor="start" x="29" y="-598.6" font-family="Times New Roman,serif" font-size="14.00">+ LoginService(credentials: CredentialStore, alertService: AlertService)</text>
<text text-anchor="start" x="29" y="-574.6" font-family="Times New Roman,serif" font-size="14.00">&#45; hashPassword(password: String): String</text>
<text text-anchor="start" x="29" y="-550.6" font-family="Times New Roman,serif" font-size="14.00">+ login(userName: String, password: String): Credential</text>
<polygon fill="black" stroke="black" points="24,-687.2 24,-687.2 438,-687.2 438,-687.2 24,-687.2"/>
<polygon fill="black" stroke="black" points="24,-615.2 24,-615.2 438,-615.2 438,-615.2 24,-615.2"/>
<polygon fill="none" stroke="black" points="24,-542.2 24,-712.2 438,-712.2 438,-542.2 24,-542.2"/>
</g>
<!-- LoginService1250869565&#45;&gt;CredentialStore1767014481 -->
<g id="edge3" class="edge">
<title>LoginService1250869565&#45;&gt;CredentialStore1767014481</title>
<path fill="none" stroke="black" d="M231,-542.08C231,-521.34 231,-500.26 231,-483.38"/>
<polygon fill="black" stroke="black" points="234.5,-482.94 231,-472.94 227.5,-482.94 234.5,-482.94"/>
<text text-anchor="middle" x="261.32" y="-511.6" font-family="Times New Roman,serif" font-size="14.00">credentials</text>
<text text-anchor="middle" x="261.32" y="-494.8" font-family="Times New Roman,serif" font-size="14.00">[0..1]</text>
</g>
</g>
</svg>
