<?xml version="1.0" encoding="UTF-8" standalone="no"?>
<!DOCTYPE svg PUBLIC "-//W3C//DTD SVG 1.1//EN"
 "http://www.w3.org/Graphics/SVG/1.1/DTD/svg11.dtd">
<!-- Generated by graphviz version 2.44.1 (20200629.0846)
 -->
<!-- Title: g Pages: 1 -->
<svg width="571pt" height="1034pt"
 viewBox="0.00 0.00 571.00 1033.80" xmlns="http://www.w3.org/2000/svg" xmlns:xlink="http://www.w3.org/1999/xlink">
<g id="graph0" class="graph" transform="scale(1 1) rotate(0) translate(4 1029.8)">
<title>g</title>
<polygon fill="white" stroke="transparent" points="-4,4 -4,-1029.8 567,-1029.8 567,4 -4,4"/>
<g id="clust1" class="cluster">
<title>cluster_867524938</title>
<polygon fill="#ececec" stroke="black" points="8,-8 8,-1017.8 555,-1017.8 555,-8 8,-8"/>
<text text-anchor="middle" x="41.27" y="-1001.2" font-family="Times New Roman,serif" font-size="14.00">codecool</text>
</g>
<g id="clust2" class="cluster">
<title>cluster_1407640290</title>
<polygon fill="#d8d8d8" stroke="black" points="16,-16 16,-985 547,-985 547,-16 16,-16"/>
<text text-anchor="middle" x="34.89" y="-968.4" font-family="Times New Roman,serif" font-size="14.00">mi6</text>
</g>
<!-- App1939028433 -->
<g id="node1" class="node">
<title>App1939028433</title>
<polygon fill="#ffffff" stroke="transparent" points="445,-952.2 117,-952.2 117,-662.2 445,-662.2 445,-952.2"/>
<text text-anchor="start" x="122" y="-934.6" font-family="Times New Roman,serif" font-size="14.00">(C)App</text>
<text text-anchor="start" x="122" y="-910.6" font-family="Times New Roman,serif" font-size="14.00">&#45; &#160;&#160;loginService: LoginService [0..1]</text>
<text text-anchor="start" x="122" y="-886.6" font-family="Times New Roman,serif" font-size="14.00">&#45; &#160;&#160;missionService: MissionService [0..1]</text>
<text text-anchor="start" x="122" y="-862.6" font-family="Times New Roman,serif" font-size="14.00">&#45; &#160;&#160;scanner: Scanner [0..1]</text>
<text text-anchor="start" x="122" y="-838.6" font-family="Times New Roman,serif" font-size="14.00">+ App(scanner: Scanner)</text>
<text text-anchor="start" x="122" y="-814.6" font-family="Times New Roman,serif" font-size="14.00">&#45; listMissions(credential: Credential)</text>
<text text-anchor="start" x="122" y="-790.6" font-family="Times New Roman,serif" font-size="14.00">+ main(args: String[])</text>
<text text-anchor="start" x="122" y="-766.6" font-family="Times New Roman,serif" font-size="14.00">&#45; promptForLogin(): Credential</text>
<text text-anchor="start" x="121.61" y="-742.6" font-family="Times New Roman,serif" font-size="14.00">&#45; promptForMissionToDeactivate(credential: Credential)</text>
<text text-anchor="start" x="122" y="-718.6" font-family="Times New Roman,serif" font-size="14.00">&#45; promptForNewMissionToAdd(credential: Credential)</text>
<text text-anchor="start" x="122" y="-694.6" font-family="Times New Roman,serif" font-size="14.00">&#45; promptMenuChoice(): int</text>
<text text-anchor="start" x="122" y="-670.6" font-family="Times New Roman,serif" font-size="14.00">+ start()</text>
<polygon fill="black" stroke="black" points="117,-927.2 117,-927.2 445,-927.2 445,-927.2 117,-927.2"/>
<polygon fill="black" stroke="black" points="117,-855.2 117,-855.2 445,-855.2 445,-855.2 117,-855.2"/>
<polygon fill="none" stroke="black" points="117,-662.2 117,-952.2 445,-952.2 445,-662.2 117,-662.2"/>
</g>
<!-- LoginService1250869565 -->
<g id="node4" class="node">
<title>LoginService1250869565</title>
<polygon fill="#ffffff" stroke="transparent" points="488,-592.6 74,-592.6 74,-422.6 488,-422.6 488,-592.6"/>
<text text-anchor="start" x="79" y="-575" font-family="Times New Roman,serif" font-size="14.00">(C)LoginService</text>
<text text-anchor="start" x="79" y="-551" font-family="Times New Roman,serif" font-size="14.00">&#45; &#160;&#160;alertService: AlertService [0..1]</text>
<text text-anchor="start" x="79" y="-527" font-family="Times New Roman,serif" font-size="14.00">&#45; &#160;&#160;credentials: CredentialStore [0..1]</text>
<text text-anchor="start" x="79" y="-503" font-family="Times New Roman,serif" font-size="14.00"># &#160;&#160;md5: DigestUtils [0..1]</text>
<text text-anchor="start" x="79" y="-479" font-family="Times New Roman,serif" font-size="14.00">+ LoginService(credentials: CredentialStore, alertService: AlertService)</text>
<text text-anchor="start" x="79" y="-455" font-family="Times New Roman,serif" font-size="14.00">&#45; hashPassword(password: String): String</text>
<text text-anchor="start" x="79" y="-431" font-family="Times New Roman,serif" font-size="14.00">+ login(userName: String, password: String): Credential</text>
<polygon fill="black" stroke="black" points="74,-567.6 74,-567.6 488,-567.6 488,-567.6 74,-567.6"/>
<polygon fill="black" stroke="black" points="74,-495.6 74,-495.6 488,-495.6 488,-495.6 74,-495.6"/>
<polygon fill="none" stroke="black" points="74,-422.6 74,-592.6 488,-592.6 488,-422.6 74,-422.6"/>
</g>
<!-- App1939028433&#45;&gt;LoginService1250869565 -->
<g id="edge1" class="edge">
<title>App1939028433&#45;&gt;LoginService1250869565</title>
<path fill="none" stroke="black" d="M281,-662.19C281,-642.07 281,-621.83 281,-602.95"/>
<polygon fill="black" stroke="black" points="284.5,-602.91 281,-592.91 277.5,-602.91 284.5,-602.91"/>
<text text-anchor="middle" x="316.38" y="-631.6" font-family="Times New Roman,serif" font-size="14.00">loginService</text>
<text text-anchor="middle" x="316.38" y="-614.8" font-family="Times New Roman,serif" font-size="14.00">[0..1]</text>
</g>
<!-- ConsoleAlertService1250869565 -->
<g id="node2" class="node">
<title>ConsoleAlertService1250869565</title>
<polygon fill="#ffffff" stroke="transparent" points="229.5,-349.6 24.5,-349.6 24.5,-299.6 229.5,-299.6 229.5,-349.6"/>
<text text-anchor="start" x="30" y="-332" font-family="Times New Roman,serif" font-size="14.00">(C)ConsoleAlertService</text>
<text text-anchor="start" x="29.87" y="-308" font-family="Times New Roman,serif" font-size="14.00">+ raiseSecurityAlert(cause: String)</text>
<polygon fill="black" stroke="black" points="25,-324.6 25,-324.6 230,-324.6 230,-324.6 25,-324.6"/>
<polygon fill="none" stroke="black" points="24.5,-299.6 24.5,-349.6 229.5,-349.6 229.5,-299.6 24.5,-299.6"/>
</g>
<!-- InMemoryCredentialStore1767014481 -->
<g id="node3" class="node">
<title>InMemoryCredentialStore1767014481</title>
<polygon fill="#ffffff" stroke="transparent" points="538.5,-385.6 247.5,-385.6 247.5,-263.6 538.5,-263.6 538.5,-385.6"/>
<text text-anchor="start" x="253" y="-368" font-family="Times New Roman,serif" font-size="14.00">(C)InMemoryCredentialStore</text>
<text text-anchor="start" x="253" y="-344" font-family="Times New Roman,serif" font-size="14.00"># &#160;&#160;data: Map&lt;String, String&gt; [0..*]</text>
<text text-anchor="start" x="253" y="-320" font-family="Times New Roman,serif" font-size="14.00"># &#160;&#160;levels: Map&lt;String, SecurityLevel&gt; [0..*]</text>
<text text-anchor="start" x="253" y="-296" font-family="Times New Roman,serif" font-size="14.00">+ InMemoryCredentialStore()</text>
<text text-anchor="start" x="252.7" y="-272" font-family="Times New Roman,serif" font-size="14.00">+ find(userName: String, hash: String): Credential</text>
<polygon fill="black" stroke="black" points="248,-360.6 248,-360.6 539,-360.6 539,-360.6 248,-360.6"/>
<polygon fill="black" stroke="black" points="248,-312.6 248,-312.6 539,-312.6 539,-312.6 248,-312.6"/>
<polygon fill="none" stroke="black" points="247.5,-263.6 247.5,-385.6 538.5,-385.6 538.5,-263.6 247.5,-263.6"/>
</g>
<!-- SecurityLevel1590281993 -->
<g id="node5" class="node">
<title>SecurityLevel1590281993</title>
<polygon fill="#dcfbd5" stroke="transparent" points="509.5,-194 276.5,-194 276.5,-24 509.5,-24 509.5,-194"/>
<text text-anchor="start" x="282" y="-176.4" font-family="Times New Roman,serif" font-size="14.00">(E)SecurityLevel</text>
<text text-anchor="start" x="282" y="-152.4" font-family="Times New Roman,serif" font-size="14.00">+ &#160;&#160;INVALID: SecurityLevel [1]</text>
<text text-anchor="start" x="282" y="-128.4" font-family="Times New Roman,serif" font-size="14.00">+ &#160;&#160;ONE: SecurityLevel [1]</text>
<text text-anchor="start" x="282" y="-104.4" font-family="Times New Roman,serif" font-size="14.00">+ &#160;&#160;THREE: SecurityLevel [1]</text>
<text text-anchor="start" x="282" y="-80.4" font-family="Times New Roman,serif" font-size="14.00">+ &#160;&#160;TWO: SecurityLevel [1]</text>
<text text-anchor="start" x="281.67" y="-56.4" font-family="Times New Roman,serif" font-size="14.00">+ valueOf(name: String): SecurityLevel</text>
<text text-anchor="start" x="282" y="-32.4" font-family="Times New Roman,serif" font-size="14.00">+ values(): SecurityLevel[]</text>
<polygon fill="black" stroke="black" points="277,-169 277,-169 510,-169 510,-169 277,-169"/>
<polygon fill="black" stroke="black" points="277,-73 277,-73 510,-73 510,-73 277,-73"/>
<polygon fill="none" stroke="black" points="276.5,-24 276.5,-194 509.5,-194 509.5,-24 276.5,-24"/>
</g>
<!-- InMemoryCredentialStore1767014481&#45;&gt;SecurityLevel1590281993 -->
<g id="edge2" class="edge">
<title>InMemoryCredentialStore1767014481&#45;&gt;SecurityLevel1590281993</title>
<path fill="none" stroke="black" d="M393,-263.53C393,-245.16 393,-224.5 393,-204.43"/>
<polygon fill="black" stroke="black" points="396.5,-204.32 393,-194.32 389.5,-204.32 396.5,-204.32"/>
<text text-anchor="middle" x="409.33" y="-233" font-family="Times New Roman,serif" font-size="14.00">levels</text>
<text text-anchor="middle" x="409.33" y="-216.2" font-family="Times New Roman,serif" font-size="14.00">[0..*]</text>
</g>
<!-- LoginService1250869565&#45;&gt;ConsoleAlertService1250869565 -->
<g id="edge3" class="edge">
<title>LoginService1250869565&#45;&gt;ConsoleAlertService1250869565</title>
<path fill="none" stroke="black" d="M202.77,-414.66C182.32,-390.62 161.98,-366.71 147.53,-349.73"/>
<polygon fill="none" stroke="black" points="200.26,-417.11 209.41,-422.46 205.6,-412.57 200.26,-417.11"/>
</g>
<!-- LoginService1250869565&#45;&gt;InMemoryCredentialStore1767014481 -->
<g id="edge4" class="edge">
<title>LoginService1250869565&#45;&gt;InMemoryCredentialStore1767014481</title>
<path fill="none" stroke="black" d="M338.46,-413.75C344.33,-404.26 350.18,-394.8 355.75,-385.8"/>
<polygon fill="none" stroke="black" points="335.35,-412.11 333.07,-422.46 341.3,-415.8 335.35,-412.11"/>
</g>
</g>
</svg>
