<?xml version="1.0" encoding="UTF-8" standalone="no"?>
<!DOCTYPE svg PUBLIC "-//W3C//DTD SVG 1.1//EN"
 "http://www.w3.org/Graphics/SVG/1.1/DTD/svg11.dtd">
<!-- Generated by graphviz version 2.44.1 (20200629.0846)
 -->
<!-- Title: g Pages: 1 -->
<svg width="766pt" height="1633pt"
 viewBox="0.00 0.00 766.00 1633.40" xmlns="http://www.w3.org/2000/svg" xmlns:xlink="http://www.w3.org/1999/xlink">
<g id="graph0" class="graph" transform="scale(1 1) rotate(0) translate(4 1629.4)">
<title>g</title>
<polygon fill="white" stroke="transparent" points="-4,4 -4,-1629.4 762,-1629.4 762,4 -4,4"/>
<g id="clust1" class="cluster">
<title>cluster_867524938</title>
<polygon fill="#ececec" stroke="black" points="8,-8 8,-1617.4 750,-1617.4 750,-8 8,-8"/>
<text text-anchor="middle" x="41.27" y="-1600.8" font-family="Times New Roman,serif" font-size="14.00">codecool</text>
</g>
<g id="clust2" class="cluster">
<title>cluster_1407640290</title>
<polygon fill="#d8d8d8" stroke="black" points="16,-16 16,-1584.6 742,-1584.6 742,-16 16,-16"/>
<text text-anchor="middle" x="34.89" y="-1568" font-family="Times New Roman,serif" font-size="14.00">mi6</text>
</g>
<!-- App1939028433 -->
<g id="node1" class="node">
<title>App1939028433</title>
<polygon fill="#ffffff" stroke="transparent" points="479,-1551.8 151,-1551.8 151,-1261.8 479,-1261.8 479,-1551.8"/>
<text text-anchor="start" x="156" y="-1534.2" font-family="Times New Roman,serif" font-size="14.00">(C)App</text>
<text text-anchor="start" x="156" y="-1510.2" font-family="Times New Roman,serif" font-size="14.00">&#45; &#160;&#160;loginService: LoginService [0..1]</text>
<text text-anchor="start" x="156" y="-1486.2" font-family="Times New Roman,serif" font-size="14.00">&#45; &#160;&#160;missionService: MissionService [0..1]</text>
<text text-anchor="start" x="156" y="-1462.2" font-family="Times New Roman,serif" font-size="14.00">&#45; &#160;&#160;scanner: Scanner [0..1]</text>
<text text-anchor="start" x="156" y="-1438.2" font-family="Times New Roman,serif" font-size="14.00">+ App(scanner: Scanner)</text>
<text text-anchor="start" x="156" y="-1414.2" font-family="Times New Roman,serif" font-size="14.00">&#45; listMissions(credential: Credential)</text>
<text text-anchor="start" x="156" y="-1390.2" font-family="Times New Roman,serif" font-size="14.00">+ main(args: String[])</text>
<text text-anchor="start" x="156" y="-1366.2" font-family="Times New Roman,serif" font-size="14.00">&#45; promptForLogin(): Credential</text>
<text text-anchor="start" x="155.61" y="-1342.2" font-family="Times New Roman,serif" font-size="14.00">&#45; promptForMissionToDeactivate(credential: Credential)</text>
<text text-anchor="start" x="156" y="-1318.2" font-family="Times New Roman,serif" font-size="14.00">&#45; promptForNewMissionToAdd(credential: Credential)</text>
<text text-anchor="start" x="156" y="-1294.2" font-family="Times New Roman,serif" font-size="14.00">&#45; promptMenuChoice(): int</text>
<text text-anchor="start" x="156" y="-1270.2" font-family="Times New Roman,serif" font-size="14.00">+ start()</text>
<polygon fill="black" stroke="black" points="151,-1526.8 151,-1526.8 479,-1526.8 479,-1526.8 151,-1526.8"/>
<polygon fill="black" stroke="black" points="151,-1454.8 151,-1454.8 479,-1454.8 479,-1454.8 151,-1454.8"/>
<polygon fill="none" stroke="black" points="151,-1261.8 151,-1551.8 479,-1551.8 479,-1261.8 151,-1261.8"/>
</g>
<!-- MissionService1250869565 -->
<g id="node5" class="node">
<title>MissionService1250869565</title>
<polygon fill="#ffffff" stroke="transparent" points="527,-1192.2 103,-1192.2 103,-1022.2 527,-1022.2 527,-1192.2"/>
<text text-anchor="start" x="108" y="-1174.6" font-family="Times New Roman,serif" font-size="14.00">(C)MissionService</text>
<text text-anchor="start" x="108" y="-1150.6" font-family="Times New Roman,serif" font-size="14.00">&#45; &#160;&#160;alertService: AlertService [0..1]</text>
<text text-anchor="start" x="108" y="-1126.6" font-family="Times New Roman,serif" font-size="14.00">&#45; &#160;&#160;missionStore: MissionStore [0..1]</text>
<text text-anchor="start" x="107.52" y="-1102.6" font-family="Times New Roman,serif" font-size="14.00">+ MissionService(missionStore: MissionStore, alertService: AlertService)</text>
<text text-anchor="start" x="108" y="-1078.6" font-family="Times New Roman,serif" font-size="14.00">+ addMission(c: Credential, m: Mission)</text>
<text text-anchor="start" x="108" y="-1054.6" font-family="Times New Roman,serif" font-size="14.00">+ deactivate(c: Credential, title: String)</text>
<text text-anchor="start" x="108" y="-1030.6" font-family="Times New Roman,serif" font-size="14.00">+ findActiveMissions(credential: Credential): List&lt;Mission&gt;</text>
<polygon fill="black" stroke="black" points="103,-1167.2 103,-1167.2 527,-1167.2 527,-1167.2 103,-1167.2"/>
<polygon fill="black" stroke="black" points="103,-1119.2 103,-1119.2 527,-1119.2 527,-1119.2 103,-1119.2"/>
<polygon fill="none" stroke="black" points="103,-1022.2 103,-1192.2 527,-1192.2 527,-1022.2 103,-1022.2"/>
</g>
<!-- App1939028433&#45;&gt;MissionService1250869565 -->
<g id="edge1" class="edge">
<title>App1939028433&#45;&gt;MissionService1250869565</title>
<path fill="none" stroke="black" d="M315,-1261.79C315,-1241.67 315,-1221.43 315,-1202.55"/>
<polygon fill="black" stroke="black" points="318.5,-1202.51 315,-1192.51 311.5,-1202.51 318.5,-1202.51"/>
<text text-anchor="middle" x="357.77" y="-1231.2" font-family="Times New Roman,serif" font-size="14.00">missionService</text>
<text text-anchor="middle" x="357.77" y="-1214.4" font-family="Times New Roman,serif" font-size="14.00">[0..1]</text>
</g>
<!-- ConsoleAlertService1250869565 -->
<g id="node2" class="node">
<title>ConsoleAlertService1250869565</title>
<polygon fill="#ffffff" stroke="transparent" points="229.5,-925.2 24.5,-925.2 24.5,-875.2 229.5,-875.2 229.5,-925.2"/>
<text text-anchor="start" x="30" y="-907.6" font-family="Times New Roman,serif" font-size="14.00">(C)ConsoleAlertService</text>
<text text-anchor="start" x="29.87" y="-883.6" font-family="Times New Roman,serif" font-size="14.00">+ raiseSecurityAlert(cause: String)</text>
<polygon fill="black" stroke="black" points="25,-900.2 25,-900.2 230,-900.2 230,-900.2 25,-900.2"/>
<polygon fill="none" stroke="black" points="24.5,-875.2 24.5,-925.2 229.5,-925.2 229.5,-875.2 24.5,-875.2"/>
</g>
<!-- InMemoryMissionStore1767014481 -->
<g id="node3" class="node">
<title>InMemoryMissionStore1767014481</title>
<polygon fill="#ffffff" stroke="transparent" points="540.5,-985.2 247.5,-985.2 247.5,-815.2 540.5,-815.2 540.5,-985.2"/>
<text text-anchor="start" x="253" y="-967.6" font-family="Times New Roman,serif" font-size="14.00">(C)InMemoryMissionStore</text>
<text text-anchor="start" x="253" y="-943.6" font-family="Times New Roman,serif" font-size="14.00">&#45; &#160;&#160;missions: List&lt;Mission&gt; [0..*]</text>
<text text-anchor="start" x="253" y="-919.6" font-family="Times New Roman,serif" font-size="14.00">+ InMemoryMissionStore()</text>
<text text-anchor="start" x="252.61" y="-895.6" font-family="Times New Roman,serif" font-size="14.00">+ findActive(level: SecurityLevel): List&lt;Mission&gt;</text>
<text text-anchor="start" x="253" y="-871.6" font-family="Times New Roman,serif" font-size="14.00">+ findByTitle(title: String): Mission</text>
<text text-anchor="start" x="253" y="-847.6" font-family="Times New Roman,serif" font-size="14.00">+ save(m: Mission)</text>
<text text-anchor="start" x="253" y="-823.6" font-family="Times New Roman,serif" font-size="14.00">+ update(m: Mission)</text>
<polygon fill="black" stroke="black" points="248,-960.2 248,-960.2 541,-960.2 541,-960.2 248,-960.2"/>
<polygon fill="black" stroke="black" points="248,-936.2 248,-936.2 541,-936.2 541,-936.2 248,-936.2"/>
<polygon fill="none" stroke="black" points="247.5,-815.2 247.5,-985.2 540.5,-985.2 540.5,-815.2 247.5,-815.2"/>
</g>
<!-- Mission1590281993 -->
<g id="node4" class="node">
<title>Mission1590281993</title>
<polygon fill="#ffffff" stroke="transparent" points="733.5,-745.6 24.5,-745.6 24.5,-263.6 733.5,-263.6 733.5,-745.6"/>
<text text-anchor="start" x="30" y="-728" font-family="Times New Roman,serif" font-size="14.00">(C)Mission</text>
<text text-anchor="start" x="30" y="-704" font-family="Times New Roman,serif" font-size="14.00">&#45; &#160;&#160;access: SecurityLevel [0..1]</text>
<text text-anchor="start" x="30" y="-680" font-family="Times New Roman,serif" font-size="14.00">&#45; &#160;&#160;active: boolean [1]</text>
<text text-anchor="start" x="30" y="-656" font-family="Times New Roman,serif" font-size="14.00">&#45; &#160;&#160;deadLine: LocalDate [0..1]</text>
<text text-anchor="start" x="30" y="-632" font-family="Times New Roman,serif" font-size="14.00">&#45; &#160;&#160;description: String [0..1]</text>
<text text-anchor="start" x="30" y="-608" font-family="Times New Roman,serif" font-size="14.00">&#45; &#160;&#160;targetName: String [0..1]</text>
<text text-anchor="start" x="30" y="-584" font-family="Times New Roman,serif" font-size="14.00">&#45; &#160;&#160;title: String [0..1]</text>
<text text-anchor="start" x="29.73" y="-560" font-family="Times New Roman,serif" font-size="14.00">+ Mission(title: String, active: boolean, targetName: String, access: SecurityLevel, description: String, deadLine: LocalDate)</text>
<text text-anchor="start" x="30" y="-536" font-family="Times New Roman,serif" font-size="14.00">+ getAccess(): SecurityLevel</text>
<text text-anchor="start" x="30" y="-512" font-family="Times New Roman,serif" font-size="14.00">+ getDeadLine(): LocalDate</text>
<text text-anchor="start" x="30" y="-488" font-family="Times New Roman,serif" font-size="14.00">+ getDescription(): String</text>
<text text-anchor="start" x="30" y="-464" font-family="Times New Roman,serif" font-size="14.00">+ getTargetName(): String</text>
<text text-anchor="start" x="30" y="-440" font-family="Times New Roman,serif" font-size="14.00">+ getTitle(): String</text>
<text text-anchor="start" x="30" y="-416" font-family="Times New Roman,serif" font-size="14.00">+ isActive(): boolean</text>
<text text-anchor="start" x="30" y="-392" font-family="Times New Roman,serif" font-size="14.00">+ setAccess(access: SecurityLevel)</text>
<text text-anchor="start" x="30" y="-368" font-family="Times New Roman,serif" font-size="14.00">+ setActive(active: boolean)</text>
<text text-anchor="start" x="30" y="-344" font-family="Times New Roman,serif" font-size="14.00">+ setDeadLine(deadLine: LocalDate)</text>
<text text-anchor="start" x="30" y="-320" font-family="Times New Roman,serif" font-size="14.00">+ setDescription(description: String)</text>
<text text-anchor="start" x="30" y="-296" font-family="Times New Roman,serif" font-size="14.00">+ setTargetName(targetName: String)</text>
<text text-anchor="start" x="30" y="-272" font-family="Times New Roman,serif" font-size="14.00">+ setTitle(title: String)</text>
<polygon fill="black" stroke="black" points="25,-720.6 25,-720.6 734,-720.6 734,-720.6 25,-720.6"/>
<polygon fill="black" stroke="black" points="25,-576.6 25,-576.6 734,-576.6 734,-576.6 25,-576.6"/>
<polygon fill="none" stroke="black" points="24.5,-263.6 24.5,-745.6 733.5,-745.6 733.5,-263.6 24.5,-263.6"/>
</g>
<!-- InMemoryMissionStore1767014481&#45;&gt;Mission1590281993 -->
<g id="edge2" class="edge">
<title>InMemoryMissionStore1767014481&#45;&gt;Mission1590281993</title>
<path fill="none" stroke="black" d="M390.78,-814.76C390.09,-796.63 389.33,-776.58 388.53,-755.66"/>
<polygon fill="black" stroke="black" points="392.03,-755.52 388.15,-745.66 385.03,-755.79 392.03,-755.52"/>
<text text-anchor="middle" x="413.5" y="-784.6" font-family="Times New Roman,serif" font-size="14.00">missions</text>
<text text-anchor="middle" x="413.5" y="-767.8" font-family="Times New Roman,serif" font-size="14.00">[0..*]</text>
</g>
<!-- SecurityLevel1590281993 -->
<g id="node6" class="node">
<title>SecurityLevel1590281993</title>
<polygon fill="#dcfbd5" stroke="transparent" points="495.5,-194 262.5,-194 262.5,-24 495.5,-24 495.5,-194"/>
<text text-anchor="start" x="268" y="-176.4" font-family="Times New Roman,serif" font-size="14.00">(E)SecurityLevel</text>
<text text-anchor="start" x="268" y="-152.4" font-family="Times New Roman,serif" font-size="14.00">+ &#160;&#160;INVALID: SecurityLevel [1]</text>
<text text-anchor="start" x="268" y="-128.4" font-family="Times New Roman,serif" font-size="14.00">+ &#160;&#160;ONE: SecurityLevel [1]</text>
<text text-anchor="start" x="268" y="-104.4" font-family="Times New Roman,serif" font-size="14.00">+ &#160;&#160;THREE: SecurityLevel [1]</text>
<text text-anchor="start" x="268" y="-80.4" font-family="Times New Roman,serif" font-size="14.00">+ &#160;&#160;TWO: SecurityLevel [1]</text>
<text text-anchor="start" x="267.67" y="-56.4" font-family="Times New Roman,serif" font-size="14.00">+ valueOf(name: String): SecurityLevel</text>
<text text-anchor="start" x="268" y="-32.4" font-family="Times New Roman,serif" font-size="14.00">+ values(): SecurityLevel[]</text>
<polygon fill="black" stroke="black" points="263,-169 263,-169 496,-169 496,-169 263,-169"/>
<polygon fill="black" stroke="black" points="263,-73 263,-73 496,-73 496,-73 263,-73"/>
<polygon fill="none" stroke="black" points="262.5,-24 262.5,-194 495.5,-194 495.5,-24 262.5,-24"/>
</g>
<!-- Mission1590281993&#45;&gt;SecurityLevel1590281993 -->
<g id="edge3" class="edge">
<title>Mission1590281993&#45;&gt;SecurityLevel1590281993</title>
<path fill="none" stroke="black" d="M379,-263.59C379,-242.76 379,-222.61 379,-204.14"/>
<polygon fill="black" stroke="black" points="382.5,-204.06 379,-194.06 375.5,-204.06 382.5,-204.06"/>
<text text-anchor="middle" x="396.87" y="-233" font-family="Times New Roman,serif" font-size="14.00">access</text>
<text text-anchor="middle" x="396.87" y="-216.2" font-family="Times New Roman,serif" font-size="14.00">[0..1]</text>
</g>
<!-- MissionService1250869565&#45;&gt;ConsoleAlertService1250869565 -->
<g id="edge4" class="edge">
<title>MissionService1250869565&#45;&gt;ConsoleAlertService1250869565</title>
<path fill="none" stroke="black" d="M230.93,-1014.53C200.9,-981.79 169.5,-947.55 149.18,-925.39"/>
<polygon fill="none" stroke="black" points="228.38,-1016.93 237.72,-1021.93 233.54,-1012.2 228.38,-1016.93"/>
</g>
<!-- MissionService1250869565&#45;&gt;InMemoryMissionStore1767014481 -->
<g id="edge5" class="edge">
<title>MissionService1250869565&#45;&gt;InMemoryMissionStore1767014481</title>
<path fill="none" stroke="black" d="M351.08,-1012.56C354.56,-1003.53 358.08,-994.41 361.52,-985.47"/>
<polygon fill="none" stroke="black" points="347.8,-1011.34 347.47,-1021.93 354.34,-1013.86 347.8,-1011.34"/>
</g>
</g>
</svg>
