<?xml version="1.0" encoding="UTF-8" standalone="no"?>
<!DOCTYPE svg PUBLIC "-//W3C//DTD SVG 1.1//EN"
 "http://www.w3.org/Graphics/SVG/1.1/DTD/svg11.dtd">
<!-- Generated by graphviz version 2.44.1 (20200629.0846)
 -->
<!-- Title: g Pages: 1 -->
<svg width="1394pt" height="1426pt"
 viewBox="0.00 0.00 1394.00 1426.40" xmlns="http://www.w3.org/2000/svg" xmlns:xlink="http://www.w3.org/1999/xlink">
<g id="graph0" class="graph" transform="scale(1 1) rotate(0) translate(4 1422.4)">
<title>g</title>
<polygon fill="white" stroke="transparent" points="-4,4 -4,-1422.4 1390,-1422.4 1390,4 -4,4"/>
<g id="clust1" class="cluster">
<title>cluster_867524938</title>
<polygon fill="#ececec" stroke="black" points="8,-8 8,-1410.4 1378,-1410.4 1378,-8 8,-8"/>
<text text-anchor="middle" x="41.27" y="-1393.8" font-family="Times New Roman,serif" font-size="14.00">codecool</text>
</g>
<g id="clust2" class="cluster">
<title>cluster_1407640290</title>
<polygon fill="#d8d8d8" stroke="black" points="16,-16 16,-1377.6 1370,-1377.6 1370,-16 16,-16"/>
<text text-anchor="middle" x="34.89" y="-1361" font-family="Times New Roman,serif" font-size="14.00">mi6</text>
</g>
<!-- App1939028433 -->
<g id="node1" class="node">
<title>App1939028433</title>
<polygon fill="#ffffff" stroke="transparent" points="1319,-1344.8 991,-1344.8 991,-1054.8 1319,-1054.8 1319,-1344.8"/>
<text text-anchor="start" x="996" y="-1327.2" font-family="Times New Roman,serif" font-size="14.00">(C)App</text>
<text text-anchor="start" x="996" y="-1303.2" font-family="Times New Roman,serif" font-size="14.00">&#45; &#160;&#160;loginService: LoginService [0..1]</text>
<text text-anchor="start" x="996" y="-1279.2" font-family="Times New Roman,serif" font-size="14.00">&#45; &#160;&#160;missionService: MissionService [0..1]</text>
<text text-anchor="start" x="996" y="-1255.2" font-family="Times New Roman,serif" font-size="14.00">&#45; &#160;&#160;scanner: Scanner [0..1]</text>
<text text-anchor="start" x="996" y="-1231.2" font-family="Times New Roman,serif" font-size="14.00">+ App(scanner: Scanner)</text>
<text text-anchor="start" x="996" y="-1207.2" font-family="Times New Roman,serif" font-size="14.00">&#45; listMissions(credential: Credential)</text>
<text text-anchor="start" x="996" y="-1183.2" font-family="Times New Roman,serif" font-size="14.00">+ main(args: String[])</text>
<text text-anchor="start" x="996" y="-1159.2" font-family="Times New Roman,serif" font-size="14.00">&#45; promptForLogin(): Credential</text>
<text text-anchor="start" x="995.61" y="-1135.2" font-family="Times New Roman,serif" font-size="14.00">&#45; promptForMissionToDeactivate(credential: Credential)</text>
<text text-anchor="start" x="996" y="-1111.2" font-family="Times New Roman,serif" font-size="14.00">&#45; promptForNewMissionToAdd(credential: Credential)</text>
<text text-anchor="start" x="996" y="-1087.2" font-family="Times New Roman,serif" font-size="14.00">&#45; promptMenuChoice(): int</text>
<text text-anchor="start" x="996" y="-1063.2" font-family="Times New Roman,serif" font-size="14.00">+ start()</text>
<polygon fill="black" stroke="black" points="991,-1319.8 991,-1319.8 1319,-1319.8 1319,-1319.8 991,-1319.8"/>
<polygon fill="black" stroke="black" points="991,-1247.8 991,-1247.8 1319,-1247.8 1319,-1247.8 991,-1247.8"/>
<polygon fill="none" stroke="black" points="991,-1054.8 991,-1344.8 1319,-1344.8 1319,-1054.8 991,-1054.8"/>
</g>
<!-- LoginService1250869565 -->
<g id="node5" class="node">
<title>LoginService1250869565</title>
<polygon fill="#ffffff" stroke="transparent" points="1362,-985.2 948,-985.2 948,-815.2 1362,-815.2 1362,-985.2"/>
<text text-anchor="start" x="953" y="-967.6" font-family="Times New Roman,serif" font-size="14.00">(C)LoginService</text>
<text text-anchor="start" x="953" y="-943.6" font-family="Times New Roman,serif" font-size="14.00">&#45; &#160;&#160;alertService: AlertService [0..1]</text>
<text text-anchor="start" x="953" y="-919.6" font-family="Times New Roman,serif" font-size="14.00">&#45; &#160;&#160;credentials: CredentialStore [0..1]</text>
<text text-anchor="start" x="953" y="-895.6" font-family="Times New Roman,serif" font-size="14.00"># &#160;&#160;md5: DigestUtils [0..1]</text>
<text text-anchor="start" x="953" y="-871.6" font-family="Times New Roman,serif" font-size="14.00">+ LoginService(credentials: CredentialStore, alertService: AlertService)</text>
<text text-anchor="start" x="953" y="-847.6" font-family="Times New Roman,serif" font-size="14.00">&#45; hashPassword(password: String): String</text>
<text text-anchor="start" x="953" y="-823.6" font-family="Times New Roman,serif" font-size="14.00">+ login(userName: String, password: String): Credential</text>
<polygon fill="black" stroke="black" points="948,-960.2 948,-960.2 1362,-960.2 1362,-960.2 948,-960.2"/>
<polygon fill="black" stroke="black" points="948,-888.2 948,-888.2 1362,-888.2 1362,-888.2 948,-888.2"/>
<polygon fill="none" stroke="black" points="948,-815.2 948,-985.2 1362,-985.2 1362,-815.2 948,-815.2"/>
</g>
<!-- App1939028433&#45;&gt;LoginService1250869565 -->
<g id="edge1" class="edge">
<title>App1939028433&#45;&gt;LoginService1250869565</title>
<path fill="none" stroke="black" d="M1155,-1054.79C1155,-1034.67 1155,-1014.43 1155,-995.55"/>
<polygon fill="black" stroke="black" points="1158.5,-995.51 1155,-985.51 1151.5,-995.51 1158.5,-995.51"/>
<text text-anchor="middle" x="1190.38" y="-1024.2" font-family="Times New Roman,serif" font-size="14.00">loginService</text>
<text text-anchor="middle" x="1190.38" y="-1007.4" font-family="Times New Roman,serif" font-size="14.00">[0..1]</text>
</g>
<!-- Credential1590281993 -->
<g id="node2" class="node">
<title>Credential1590281993</title>
<polygon fill="#ffffff" stroke="transparent" points="1052.5,-553.6 751.5,-553.6 751.5,-455.6 1052.5,-455.6 1052.5,-553.6"/>
<text text-anchor="start" x="757" y="-536" font-family="Times New Roman,serif" font-size="14.00">(C)Credential</text>
<text text-anchor="start" x="757" y="-512" font-family="Times New Roman,serif" font-size="14.00">+ &#160;&#160;isValid: boolean [1]</text>
<text text-anchor="start" x="757" y="-488" font-family="Times New Roman,serif" font-size="14.00">+ &#160;&#160;level: SecurityLevel [0..1]</text>
<text text-anchor="start" x="756.85" y="-464" font-family="Times New Roman,serif" font-size="14.00">+ Credential(level: SecurityLevel, isValid: boolean)</text>
<polygon fill="black" stroke="black" points="752,-528.6 752,-528.6 1053,-528.6 1053,-528.6 752,-528.6"/>
<polygon fill="black" stroke="black" points="752,-480.6 752,-480.6 1053,-480.6 1053,-480.6 752,-480.6"/>
<polygon fill="none" stroke="black" points="751.5,-455.6 751.5,-553.6 1052.5,-553.6 1052.5,-455.6 751.5,-455.6"/>
</g>
<!-- SecurityLevel1590281993 -->
<g id="node8" class="node">
<title>SecurityLevel1590281993</title>
<polygon fill="#dcfbd5" stroke="transparent" points="1018.5,-194 785.5,-194 785.5,-24 1018.5,-24 1018.5,-194"/>
<text text-anchor="start" x="791" y="-176.4" font-family="Times New Roman,serif" font-size="14.00">(E)SecurityLevel</text>
<text text-anchor="start" x="791" y="-152.4" font-family="Times New Roman,serif" font-size="14.00">+ &#160;&#160;INVALID: SecurityLevel [1]</text>
<text text-anchor="start" x="791" y="-128.4" font-family="Times New Roman,serif" font-size="14.00">+ &#160;&#160;ONE: SecurityLevel [1]</text>
<text text-anchor="start" x="791" y="-104.4" font-family="Times New Roman,serif" font-size="14.00">+ &#160;&#160;THREE: SecurityLevel [1]</text>
<text text-anchor="start" x="791" y="-80.4" font-family="Times New Roman,serif" font-size="14.00">+ &#160;&#160;TWO: SecurityLevel [1]</text>
<text text-anchor="start" x="790.67" y="-56.4" font-family="Times New Roman,serif" font-size="14.00">+ valueOf(name: String): SecurityLevel</text>
<text text-anchor="start" x="791" y="-32.4" font-family="Times New Roman,serif" font-size="14.00">+ values(): SecurityLevel[]</text>
<polygon fill="black" stroke="black" points="786,-169 786,-169 1019,-169 1019,-169 786,-169"/>
<polygon fill="black" stroke="black" points="786,-73 786,-73 1019,-73 1019,-73 786,-73"/>
<polygon fill="none" stroke="black" points="785.5,-24 785.5,-194 1018.5,-194 1018.5,-24 785.5,-24"/>
</g>
<!-- Credential1590281993&#45;&gt;SecurityLevel1590281993 -->
<g id="edge2" class="edge">
<title>Credential1590281993&#45;&gt;SecurityLevel1590281993</title>
<path fill="none" stroke="black" d="M902,-455.34C902,-393.16 902,-283.68 902,-204.64"/>
<polygon fill="black" stroke="black" points="905.5,-204.18 902,-194.18 898.5,-204.18 905.5,-204.18"/>
<text text-anchor="middle" x="917.16" y="-233" font-family="Times New Roman,serif" font-size="14.00">level</text>
<text text-anchor="middle" x="917.16" y="-216.2" font-family="Times New Roman,serif" font-size="14.00">[0..1]</text>
</g>
<!-- InMemoryCredentialStore1767014481 -->
<g id="node3" class="node">
<title>InMemoryCredentialStore1767014481</title>
<polygon fill="#ffffff" stroke="transparent" points="1361.5,-565.6 1070.5,-565.6 1070.5,-443.6 1361.5,-443.6 1361.5,-565.6"/>
<text text-anchor="start" x="1076" y="-548" font-family="Times New Roman,serif" font-size="14.00">(C)InMemoryCredentialStore</text>
<text text-anchor="start" x="1076" y="-524" font-family="Times New Roman,serif" font-size="14.00"># &#160;&#160;data: Map&lt;String, String&gt; [0..*]</text>
<text text-anchor="start" x="1076" y="-500" font-family="Times New Roman,serif" font-size="14.00"># &#160;&#160;levels: Map&lt;String, SecurityLevel&gt; [0..*]</text>
<text text-anchor="start" x="1076" y="-476" font-family="Times New Roman,serif" font-size="14.00">+ InMemoryCredentialStore()</text>
<text text-anchor="start" x="1075.7" y="-452" font-family="Times New Roman,serif" font-size="14.00">+ find(userName: String, hash: String): Credential</text>
<polygon fill="black" stroke="black" points="1071,-540.6 1071,-540.6 1362,-540.6 1362,-540.6 1071,-540.6"/>
<polygon fill="black" stroke="black" points="1071,-492.6 1071,-492.6 1362,-492.6 1362,-492.6 1071,-492.6"/>
<polygon fill="none" stroke="black" points="1070.5,-443.6 1070.5,-565.6 1361.5,-565.6 1361.5,-443.6 1070.5,-443.6"/>
</g>
<!-- InMemoryCredentialStore1767014481&#45;&gt;SecurityLevel1590281993 -->
<g id="edge3" class="edge">
<title>InMemoryCredentialStore1767014481&#45;&gt;SecurityLevel1590281993</title>
<path fill="none" stroke="black" d="M1177.34,-443.35C1131.72,-372.26 1062,-263.6 1062,-263.6 1062,-263.6 1031.61,-234.43 997.32,-201.51"/>
<polygon fill="black" stroke="black" points="999.59,-198.84 989.96,-194.44 994.75,-203.89 999.59,-198.84"/>
<text text-anchor="middle" x="1058.33" y="-233" font-family="Times New Roman,serif" font-size="14.00">levels</text>
<text text-anchor="middle" x="1058.33" y="-216.2" font-family="Times New Roman,serif" font-size="14.00">[0..*]</text>
</g>
<!-- InMemoryMissionStore1767014481 -->
<g id="node4" class="node">
<title>InMemoryMissionStore1767014481</title>
<polygon fill="#ffffff" stroke="transparent" points="525.5,-985.2 232.5,-985.2 232.5,-815.2 525.5,-815.2 525.5,-985.2"/>
<text text-anchor="start" x="238" y="-967.6" font-family="Times New Roman,serif" font-size="14.00">(C)InMemoryMissionStore</text>
<text text-anchor="start" x="238" y="-943.6" font-family="Times New Roman,serif" font-size="14.00">&#45; &#160;&#160;missions: List&lt;Mission&gt; [0..*]</text>
<text text-anchor="start" x="238" y="-919.6" font-family="Times New Roman,serif" font-size="14.00">+ InMemoryMissionStore()</text>
<text text-anchor="start" x="237.61" y="-895.6" font-family="Times New Roman,serif" font-size="14.00">+ findActive(level: SecurityLevel): List&lt;Mission&gt;</text>
<text text-anchor="start" x="238" y="-871.6" font-family="Times New Roman,serif" font-size="14.00">+ findByTitle(title: String): Mission</text>
<text text-anchor="start" x="238" y="-847.6" font-family="Times New Roman,serif" font-size="14.00">+ save(m: Mission)</text>
<text text-anchor="start" x="238" y="-823.6" font-family="Times New Roman,serif" font-size="14.00">+ update(m: Mission)</text>
<polygon fill="black" stroke="black" points="233,-960.2 233,-960.2 526,-960.2 526,-960.2 233,-960.2"/>
<polygon fill="black" stroke="black" points="233,-936.2 233,-936.2 526,-936.2 526,-936.2 233,-936.2"/>
<polygon fill="none" stroke="black" points="232.5,-815.2 232.5,-985.2 525.5,-985.2 525.5,-815.2 232.5,-815.2"/>
</g>
<!-- Mission1590281993 -->
<g id="node6" class="node">
<title>Mission1590281993</title>
<polygon fill="#ffffff" stroke="transparent" points="733.5,-745.6 24.5,-745.6 24.5,-263.6 733.5,-263.6 733.5,-745.6"/>
<text text-anchor="start" x="30" y="-728" font-family="Times New Roman,serif" font-size="14.00">(C)Mission</text>
<text text-anchor="start" x="30" y="-704" font-family="Times New Roman,serif" font-size="14.00">&#45; &#160;&#160;access: SecurityLevel [0..1]</text>
<text text-anchor="start" x="30" y="-680" font-family="Times New Roman,serif" font-size="14.00">&#45; &#160;&#160;active: boolean [1]</text>
<text text-anchor="start" x="30" y="-656" font-family="Times New Roman,serif" font-size="14.00">&#45; &#160;&#160;deadLine: LocalDate [0..1]</text>
<text text-anchor="start" x="30" y="-632" font-family="Times New Roman,serif" font-size="14.00">&#45; &#160;&#160;description: String [0..1]</text>
<text text-anchor="start" x="30" y="-608" font-family="Times New Roman,serif" font-size="14.00">&#45; &#160;&#160;targetName: String [0..1]</text>
<text text-anchor="start" x="30" y="-584" font-family="Times New Roman,serif" font-size="14.00">&#45; &#160;&#160;title: String [0..1]</text>
<text text-anchor="start" x="29.73" y="-560" font-family="Times New Roman,serif" font-size="14.00">+ Mission(title: String, active: boolean, targetName: String, access: SecurityLevel, description: String, deadLine: LocalDate)</text>
<text text-anchor="start" x="30" y="-536" font-family="Times New Roman,serif" font-size="14.00">+ getAccess(): SecurityLevel</text>
<text text-anchor="start" x="30" y="-512" font-family="Times New Roman,serif" font-size="14.00">+ getDeadLine(): LocalDate</text>
<text text-anchor="start" x="30" y="-488" font-family="Times New Roman,serif" font-size="14.00">+ getDescription(): String</text>
<text text-anchor="start" x="30" y="-464" font-family="Times New Roman,serif" font-size="14.00">+ getTargetName(): String</text>
<text text-anchor="start" x="30" y="-440" font-family="Times New Roman,serif" font-size="14.00">+ getTitle(): String</text>
<text text-anchor="start" x="30" y="-416" font-family="Times New Roman,serif" font-size="14.00">+ isActive(): boolean</text>
<text text-anchor="start" x="30" y="-392" font-family="Times New Roman,serif" font-size="14.00">+ setAccess(access: SecurityLevel)</text>
<text text-anchor="start" x="30" y="-368" font-family="Times New Roman,serif" font-size="14.00">+ setActive(active: boolean)</text>
<text text-anchor="start" x="30" y="-344" font-family="Times New Roman,serif" font-size="14.00">+ setDeadLine(deadLine: LocalDate)</text>
<text text-anchor="start" x="30" y="-320" font-family="Times New Roman,serif" font-size="14.00">+ setDescription(description: String)</text>
<text text-anchor="start" x="30" y="-296" font-family="Times New Roman,serif" font-size="14.00">+ setTargetName(targetName: String)</text>
<text text-anchor="start" x="30" y="-272" font-family="Times New Roman,serif" font-size="14.00">+ setTitle(title: String)</text>
<polygon fill="black" stroke="black" points="25,-720.6 25,-720.6 734,-720.6 734,-720.6 25,-720.6"/>
<polygon fill="black" stroke="black" points="25,-576.6 25,-576.6 734,-576.6 734,-576.6 25,-576.6"/>
<polygon fill="none" stroke="black" points="24.5,-263.6 24.5,-745.6 733.5,-745.6 733.5,-263.6 24.5,-263.6"/>
</g>
<!-- InMemoryMissionStore1767014481&#45;&gt;Mission1590281993 -->
<g id="edge4" class="edge">
<title>InMemoryMissionStore1767014481&#45;&gt;Mission1590281993</title>
<path fill="none" stroke="black" d="M379,-814.76C379,-796.71 379,-776.76 379,-755.94"/>
<polygon fill="black" stroke="black" points="382.5,-755.66 379,-745.66 375.5,-755.66 382.5,-755.66"/>
<text text-anchor="middle" x="403.5" y="-784.6" font-family="Times New Roman,serif" font-size="14.00">missions</text>
<text text-anchor="middle" x="403.5" y="-767.8" font-family="Times New Roman,serif" font-size="14.00">[0..*]</text>
</g>
<!-- LoginService1250869565&#45;&gt;InMemoryCredentialStore1767014481 -->
<g id="edge5" class="edge">
<title>LoginService1250869565&#45;&gt;InMemoryCredentialStore1767014481</title>
<path fill="none" stroke="black" d="M1168.09,-814.76C1179.12,-743.54 1194.74,-642.79 1205.11,-575.89"/>
<polygon fill="black" stroke="black" points="1208.59,-576.28 1206.66,-565.86 1201.67,-575.21 1208.59,-576.28"/>
<text text-anchor="middle" x="1204.32" y="-784.6" font-family="Times New Roman,serif" font-size="14.00">credentials</text>
<text text-anchor="middle" x="1204.32" y="-767.8" font-family="Times New Roman,serif" font-size="14.00">[0..1]</text>
</g>
<!-- Mission1590281993&#45;&gt;SecurityLevel1590281993 -->
<g id="edge6" class="edge">
<title>Mission1590281993&#45;&gt;SecurityLevel1590281993</title>
<path fill="none" stroke="black" d="M697.92,-263.59C727.52,-241.31 756.08,-219.82 781.99,-200.31"/>
<polygon fill="black" stroke="black" points="784.43,-202.86 790.31,-194.06 780.22,-197.27 784.43,-202.86"/>
<text text-anchor="middle" x="778.87" y="-233" font-family="Times New Roman,serif" font-size="14.00">access</text>
<text text-anchor="middle" x="778.87" y="-216.2" font-family="Times New Roman,serif" font-size="14.00">[0..1]</text>
</g>
<!-- MissionService1250869565 -->
<g id="node7" class="node">
<title>MissionService1250869565</title>
<polygon fill="#ffffff" stroke="transparent" points="591,-1284.8 167,-1284.8 167,-1114.8 591,-1114.8 591,-1284.8"/>
<text text-anchor="start" x="172" y="-1267.2" font-family="Times New Roman,serif" font-size="14.00">(C)MissionService</text>
<text text-anchor="start" x="172" y="-1243.2" font-family="Times New Roman,serif" font-size="14.00">&#45; &#160;&#160;alertService: AlertService [0..1]</text>
<text text-anchor="start" x="172" y="-1219.2" font-family="Times New Roman,serif" font-size="14.00">&#45; &#160;&#160;missionStore: MissionStore [0..1]</text>
<text text-anchor="start" x="171.52" y="-1195.2" font-family="Times New Roman,serif" font-size="14.00">+ MissionService(missionStore: MissionStore, alertService: AlertService)</text>
<text text-anchor="start" x="172" y="-1171.2" font-family="Times New Roman,serif" font-size="14.00">+ addMission(c: Credential, m: Mission)</text>
<text text-anchor="start" x="172" y="-1147.2" font-family="Times New Roman,serif" font-size="14.00">+ deactivate(c: Credential, title: String)</text>
<text text-anchor="start" x="172" y="-1123.2" font-family="Times New Roman,serif" font-size="14.00">+ findActiveMissions(credential: Credential): List&lt;Mission&gt;</text>
<polygon fill="black" stroke="black" points="167,-1259.8 167,-1259.8 591,-1259.8 591,-1259.8 167,-1259.8"/>
<polygon fill="black" stroke="black" points="167,-1211.8 167,-1211.8 591,-1211.8 591,-1211.8 167,-1211.8"/>
<polygon fill="none" stroke="black" points="167,-1114.8 167,-1284.8 591,-1284.8 591,-1114.8 167,-1114.8"/>
</g>
<!-- MissionService1250869565&#45;&gt;InMemoryMissionStore1767014481 -->
<g id="edge7" class="edge">
<title>MissionService1250869565&#45;&gt;InMemoryMissionStore1767014481</title>
<path fill="none" stroke="black" d="M379,-1114.71C379,-1077.56 379,-1033.71 379,-995.45"/>
<polygon fill="black" stroke="black" points="382.5,-995.34 379,-985.34 375.5,-995.34 382.5,-995.34"/>
<text text-anchor="middle" x="415.55" y="-1024.2" font-family="Times New Roman,serif" font-size="14.00">missionStore</text>
<text text-anchor="middle" x="415.55" y="-1007.4" font-family="Times New Roman,serif" font-size="14.00">[0..1]</text>
</g>
</g>
</svg>
